<?xml version="1.0" encoding="utf-8"?>
<!-- Generator: Adobe Illustrator 17.0.0, SVG Export Plug-In . SVG Version: 6.00 Build 0)  -->
<!DOCTYPE svg PUBLIC "-//W3C//DTD SVG 1.1//EN" "http://www.w3.org/Graphics/SVG/1.1/DTD/svg11.dtd">
<svg version="1.1" xmlns="http://www.w3.org/2000/svg" xmlns:xlink="http://www.w3.org/1999/xlink" x="0px" y="0px" width="1280px"
	 height="720px" viewBox="0 0 1280 720" enable-background="new 0 0 1280 720" xml:space="preserve">
<g id="Linkedin" display="none">
	<g display="inline">
		<path fill="#269A8E" d="M640.999,0C839.832,0,1001,161.19,1001,360.001S839.832,720,640.999,720S281,558.81,281,360.001
			S442.168,0,640.999,0z"/>
		<path fill="#030104" d="M483.86,494.64h67.411V269.954H483.86V494.64z M746.481,262.171c-32.715,0-61.988,11.947-82.754,38.318
			v-31.275h-67.658v225.427h67.658V372.737c0-25.763,23.603-50.896,53.167-50.896s36.855,25.133,36.855,50.266V494.62h67.411V367.09
			C821.158,278.505,779.218,262.171,746.481,262.171z M517.25,247.5c18.63,0,33.751-15.121,33.751-33.751
			s-15.121-33.749-33.751-33.749s-33.751,15.121-33.751,33.751S498.62,247.5,517.25,247.5z"/>
	</g>
</g>
<g id="Facebook">
	<g>
		<path fill="#2D9185" d="M640.999,0C839.832,0,1001,161.19,1001,360.001C1001,558.835,839.832,720,640.999,720
			S281,558.832,281,360.001C281,161.19,442.168,0,640.999,0z"/>
		<path fill="#030104" d="M684.831,247.836h46.395v-68.535h-54.539v0.247c-66.083,2.341-79.627,39.487-80.821,78.503h-0.136v34.223
			h-44.999v67.117h44.999V539.3h67.816V359.391h55.552l10.731-67.117h-66.261v-20.677
			C663.569,258.412,672.343,247.836,684.831,247.836z"/>
	</g>
</g>
<g id="Twitter">
</g>
</svg>
