<?xml version="1.0" encoding="utf-8"?>
<!-- Generator: Adobe Illustrator 17.0.0, SVG Export Plug-In . SVG Version: 6.00 Build 0)  -->
<!DOCTYPE svg PUBLIC "-//W3C//DTD SVG 1.1//EN" "http://www.w3.org/Graphics/SVG/1.1/DTD/svg11.dtd">
<svg version="1.1" id="Camada_1" xmlns="http://www.w3.org/2000/svg" xmlns:xlink="http://www.w3.org/1999/xlink" x="0px" y="0px"
	 width="800px" height="800px" viewBox="0 0 800 800" enable-background="new 0 0 800 800" xml:space="preserve">
<rect fill="#F9F5E7" width="800" height="800"/>
<g>
	<g>
		<g>
			<g>
				<path fill="#ADC077" d="M397.487,149.877c-2.589-6.401-6.038-12.132-9.94-17.239c5.531-8.727,6.296-19.389,1.952-30.316
					c-4.089-10.288-12.375-19.775-23.327-26.714c-11.815-7.485-25.725-11.441-40.228-11.441c-18.611,0-37.702,6.669-55.209,19.284
					l-9.4,6.773l11.206,3.025c18.484,4.988,33.239,19.146,46.253,31.637c13.29,12.752,25.841,24.797,40.383,24.8
					c0.004,0,0.004,0,0.007,0c7.155,0,13.995-2.841,20.839-8.649c6.571,9.199,11.243,20.48,11.243,34.196l-1.016,111.009h11.674
					c0,0,0.467-108.679,0.467-112.326C402.39,165.105,400.909,155.546,397.487,149.877z"/>
			</g>
			<path fill="#9BA868" d="M482.401,30.875c-20.764,0-40.168,6.203-56.11,17.938c-14.118,10.389-24.581,24.755-28.708,39.414
				c-4.722,16.776-0.886,31.933,10.243,41.937c-3.828,6.681-7.39,13.577-10.21,20.266c-6.291,12.779-5.238,16.619-6.221,25.356
				l-1.016,111.009h11.675c0,0,0.466-108.679,0.466-112.327c0-8.811,5.204-21.799,14.473-38.029
				c6.885,3.693,13.318,5.496,19.583,5.496c20.429,0,33.716-19.419,47.782-39.977c12.555-18.351,26.785-39.15,47.958-49.92
				l10.325-5.254l-10.593-4.702C515.29,34.645,498.586,30.875,482.401,30.875z"/>
			<path opacity="0.1" fill="#010002" d="M481.871,30.875c-20.764,0-40.168,6.203-56.11,17.938
				c-14.118,10.389-24.581,24.755-28.708,39.414c-4.722,16.776-0.886,31.933,10.243,41.937c-3.828,6.681-7.39,13.577-10.21,20.266
				c-6.291,12.779-5.238,16.619-6.221,25.357l-1.016,111.008h11.675c0,0,0.466-108.679,0.466-112.327
				c0-8.811,5.204-21.799,14.473-38.029c6.885,3.693,13.318,5.497,19.583,5.497c20.429,0,33.716-19.42,47.782-39.978
				c12.555-18.351,26.785-39.15,47.958-49.92l10.325-5.254l-10.593-4.702C514.76,34.645,498.056,30.875,481.871,30.875z"/>
		</g>
		<g>
			<g>
				<g>
					<path fill="#928268" d="M458.022,277.694c-3.344-3.416-8.465-4.535-14.41-2.972c-0.262,0.083-26.748,8.484-35.55,10.993
						c-5.644,1.607-15.572,1.632-21.257,0.019c-8.892-2.515-35.653-10.955-36.247-11.133c-5.601-1.441-10.722-0.33-14.078,3.08
						c-3.342,3.41-4.347,8.535-2.678,14.263l20.094,61.539c0.874,2.68,3.389,4.495,6.226,4.495h78.555
						c2.993,0,5.608-2.014,6.342-4.895l15.74-61.341C462.361,286.222,461.365,281.097,458.022,277.694z"/>
					<g opacity="0.1">
						<g>
							<path fill="#050206" d="M458.022,277.694c-3.344-3.416-8.465-4.535-14.41-2.972c-0.262,0.083-26.748,8.484-35.55,10.993
								c-5.644,1.607-15.572,1.632-21.257,0.019c-8.892-2.515-35.653-10.955-36.247-11.133c-5.601-1.441-10.722-0.33-14.078,3.08
								c-3.342,3.41-4.347,8.535-2.678,14.263l20.094,61.539c0.874,2.68,3.389,4.495,6.226,4.495h78.555
								c2.993,0,5.608-2.014,6.342-4.895l15.74-61.341C462.361,286.222,461.365,281.097,458.022,277.694z"/>
						</g>
					</g>
				</g>
			</g>
			<g>
				<path fill="#A39178" d="M399.399,286.879c-4.516,0.164-9.277-0.203-12.595-1.145c-8.893-2.515-35.653-10.955-36.248-11.133
					c-5.6-1.441-10.723-0.33-14.077,3.08c-3.344,3.41-4.347,8.535-2.678,14.263l20.093,61.538c0.876,2.68,3.389,4.497,6.227,4.497
					h39.279V286.879z"/>
			</g>
			<g>
				<g>
					<path fill="#928268" d="M478.312,418.017c-17.752-15.717-33.09-29.288-33.09-40.529c0-3.594-2.926-6.503-6.546-6.503H360.12
						c-3.618,0-6.546,2.909-6.546,6.503c0,11.241-15.336,24.812-33.09,40.529c-35.768,31.647-84.744,74.996-84.744,154.563
						c0,56.375,43.018,117.056,137.475,117.056h52.37c94.457,0,137.474-60.68,137.474-117.056
						C563.057,493.013,514.081,449.664,478.312,418.017z"/>
					<g opacity="0.1">
						<path fill="#010002" d="M479.514,418.015c-17.752-15.717-33.09-29.288-33.09-40.528c0-3.596-2.926-6.503-6.546-6.503h-78.556
							c-3.618,0-6.546,2.907-6.546,6.503c0,11.239-15.336,24.811-33.09,40.528c-35.768,31.647-84.744,74.996-84.744,154.563
							c0,56.377,43.018,117.058,137.475,117.058h52.371c94.457,0,137.474-60.68,137.474-117.058
							C564.259,493.011,515.283,449.662,479.514,418.015z"/>
					</g>
				</g>
			</g>
			<g>
				<g>
					<path fill="#A39178" d="M399.399,370.985H360.12c-3.617,0-6.546,2.909-6.546,6.503c0,11.241-15.337,24.812-33.089,40.529
						c-35.768,31.647-84.745,74.996-84.745,154.563c0,56.375,43.017,117.056,137.474,117.056h26.186V370.985L399.399,370.985z"/>
				</g>
			</g>
			<g>
				<path fill="#A18262" d="M451.769,364.481c0,7.153-5.891,13.005-13.093,13.005H360.12c-7.201,0-13.093-5.853-13.093-13.005l0,0
					c0-7.154,5.892-13.007,13.093-13.007h78.556C445.877,351.474,451.769,357.326,451.769,364.481L451.769,364.481z"/>
			</g>
			<g>
				<path fill="#967857" d="M438.676,351.474h-39.277v26.012h39.277c7.202,0,13.093-5.853,13.093-13.005
					C451.769,357.326,445.877,351.474,438.676,351.474z"/>
			</g>
		</g>
	</g>
	<rect x="276.08" y="711.417" fill="none" width="249.042" height="57.708"/>
	<text transform="matrix(1 0 0 1 276.0804 769.0002)"><tspan x="0" y="0" fill="#798B56" font-family="'PeachMilk'" font-size="81.6792">Green</tspan><tspan x="152.574" y="0" fill="#8A765D" font-family="'PeachMilk'" font-size="81.6792">Bag</tspan></text>
</g>
</svg>
