<?xml version="1.0" encoding="utf-8"?>
<!-- Generator: Adobe Illustrator 21.0.0, SVG Export Plug-In . SVG Version: 6.00 Build 0)  -->
<svg version="1.1" xmlns="http://www.w3.org/2000/svg" xmlns:xlink="http://www.w3.org/1999/xlink" x="0px" y="0px"
	 viewBox="0 0 850.4 850.4" style="enable-background:new 0 0 850.4 850.4;" xml:space="preserve">
<style type="text/css">
	.st0{display:none;}
	.st1{display:inline;fill:#1E2D23;}
	.st2{display:inline;fill:#367539;}
	.st3{display:inline;fill:#ADC077;}
	.st4{display:inline;fill:#967857;}
	.st5{display:inline;fill:#339A7B;}
	.st6{display:inline;fill:#928268;}
	.st7{fill:#C8D88C;}
	.st8{opacity:0.5;fill:#040006;}
	.st9{opacity:0.15;fill:#040006;}
	.st10{fill:#ADC077;}
	.st11{fill:#9BA868;}
	.st12{opacity:0.1;fill:#040006;}
	.st13{fill:#928268;}
	.st14{opacity:0.1;}
	.st15{fill:#090609;}
	.st16{fill:#A39178;}
	.st17{fill:#040006;}
	.st18{fill:#A18262;}
	.st19{fill:#967857;}
</style>
<g id="BG">
</g>
<g id="Camada_4" class="st0">
	<rect x="-222" y="115" class="st1" width="85" height="85"/>
	<rect x="-220" y="200" class="st2" width="82" height="85"/>
	<rect x="-220" y="371" class="st3" width="82" height="85"/>
	<rect x="-220" y="456" class="st4" width="82" height="84"/>
	<rect x="-220" y="285" class="st5" width="82" height="86"/>
	<rect x="-220" y="539.6" class="st6" width="82.2" height="85.1"/>
</g>
<g id="Flat">
</g>
<g id="Camada_2">
	<g>
		<rect y="1" class="st7" width="850" height="850"/>
		<g>
			<rect class="st8" width="850" height="850"/>
			<polygon class="st9" points="481.8,338.6 850,652.5 850,850 576.7,850 422.2,802.5 			"/>
			<polygon class="st9" points="442.3,184.5 850,493.2 850,285.5 569.6,77.7 			"/>
			<g>
				<g>
					<path class="st10" d="M420.4,199.7c-2.9-7.2-6.8-13.6-11.1-19.3c6.2-9.8,7-21.7,2.2-33.9c-4.6-11.5-13.8-22.1-26.1-29.9
						c-13.2-8.4-28.8-12.8-45-12.8c-20.8,0-42.1,7.5-61.7,21.6l-10.5,7.6l12.5,3.4c20.7,5.6,37.2,21.4,51.7,35.4
						c14.9,14.3,28.9,27.7,45.1,27.7c0,0,0,0,0,0c8,0,15.6-3.2,23.3-9.7c7.3,10.3,12.6,22.9,12.6,38.2l-1.1,124.1h13.1
						c0,0,0.5-121.5,0.5-125.6C425.8,216.8,424.2,206.1,420.4,199.7z"/>
				</g>
				<path class="st11" d="M515.3,66.7c-23.2,0-44.9,6.9-62.7,20.1c-15.8,11.6-27.5,27.7-32.1,44.1c-5.3,18.8-1,35.7,11.5,46.9
					c-4.3,7.5-8.3,15.2-11.4,22.7c-7,14.3-5.9,18.6-7,28.3l-1.1,124.1h13.1c0,0,0.5-121.5,0.5-125.6c0-9.8,5.8-24.4,16.2-42.5
					c7.7,4.1,14.9,6.1,21.9,6.1c22.8,0,37.7-21.7,53.4-44.7c14-20.5,29.9-43.8,53.6-55.8l11.5-5.9l-11.8-5.3
					C552.1,70.9,533.4,66.7,515.3,66.7z"/>
				<path class="st12" d="M514.7,66.7c-23.2,0-44.9,6.9-62.7,20.1c-15.8,11.6-27.5,27.7-32.1,44.1c-5.3,18.8-1,35.7,11.5,46.9
					c-4.3,7.5-8.3,15.2-11.4,22.7c-7,14.3-5.9,18.6-7,28.3l-1.1,124.1h13.1c0,0,0.5-121.5,0.5-125.6c0-9.8,5.8-24.4,16.2-42.5
					c7.7,4.1,14.9,6.1,21.9,6.1c22.8,0,37.7-21.7,53.4-44.7c14-20.5,29.9-43.8,53.6-55.8l11.5-5.9l-11.8-5.3
					C551.5,70.9,532.8,66.7,514.7,66.7z"/>
			</g>
			<g>
				<g>
					<g>
						<path class="st13" d="M488,342.6c-3.7-3.8-9.5-5.1-16.1-3.3c-0.3,0.1-29.9,9.5-39.7,12.3c-6.3,1.8-17.4,1.8-23.8,0
							c-9.9-2.8-39.9-12.2-40.5-12.4c-6.3-1.6-12-0.4-15.7,3.4c-3.7,3.8-4.9,9.5-3,15.9l22.5,68.8c1,3,3.8,5,7,5h87.8
							c3.3,0,6.3-2.3,7.1-5.5l17.6-68.6C492.9,352.1,491.8,346.4,488,342.6z"/>
						<g class="st14">
							<g>
								<path class="st15" d="M488,342.6c-3.7-3.8-9.5-5.1-16.1-3.3c-0.3,0.1-29.9,9.5-39.7,12.3c-6.3,1.8-17.4,1.8-23.8,0
									c-9.9-2.8-39.9-12.2-40.5-12.4c-6.3-1.6-12-0.4-15.7,3.4c-3.7,3.8-4.9,9.5-3,15.9l22.5,68.8c1,3,3.8,5,7,5h87.8
									c3.3,0,6.3-2.3,7.1-5.5l17.6-68.6C492.9,352.1,491.8,346.4,488,342.6z"/>
							</g>
						</g>
					</g>
				</g>
				<g>
					<path class="st16" d="M422.5,352.9c-5,0.2-10.4-0.2-14.1-1.3c-9.9-2.8-39.9-12.2-40.5-12.4c-6.3-1.6-12-0.4-15.7,3.4
						c-3.7,3.8-4.9,9.5-3,15.9l22.5,68.8c1,3,3.8,5,7,5h43.9V352.9z"/>
				</g>
				<g>
					<g>
						<path class="st13" d="M510.7,499.5c-19.8-17.6-37-32.7-37-45.3c0-4-3.3-7.3-7.3-7.3h-87.8c-4,0-7.3,3.3-7.3,7.3
							c0,12.6-17.1,27.7-37,45.3c-40,35.4-94.7,83.8-94.7,172.8c0,63,48.1,130.9,153.7,130.9h58.5c105.6,0,153.7-67.8,153.7-130.9
							C605.5,583.3,550.7,534.9,510.7,499.5z"/>
						<g class="st14">
							<path class="st17" d="M512.1,499.5c-19.8-17.6-37-32.7-37-45.3c0-4-3.3-7.3-7.3-7.3h-87.8c-4,0-7.3,3.3-7.3,7.3
								c0,12.6-17.1,27.7-37,45.3c-40,35.4-94.7,83.8-94.7,172.8c0,63,48.1,130.9,153.7,130.9h58.5c105.6,0,153.7-67.8,153.7-130.9
								C606.8,583.3,552,534.9,512.1,499.5z"/>
						</g>
					</g>
				</g>
				<g>
					<g>
						<path class="st16" d="M422.5,446.9h-43.9c-4,0-7.3,3.3-7.3,7.3c0,12.6-17.1,27.7-37,45.3c-40,35.4-94.7,83.8-94.7,172.8
							c0,63,48.1,130.9,153.7,130.9h29.3V446.9L422.5,446.9z"/>
					</g>
				</g>
				<g>
					<path class="st18" d="M481,439.6c0,8-6.6,14.5-14.6,14.5h-87.8c-8,0-14.6-6.5-14.6-14.5l0,0c0-8,6.6-14.5,14.6-14.5h87.8
						C474.5,425.1,481,431.6,481,439.6L481,439.6z"/>
				</g>
				<g>
					<path class="st19" d="M466.4,425.1h-43.9v29.1h43.9c8.1,0,14.6-6.5,14.6-14.5C481,431.6,474.5,425.1,466.4,425.1z"/>
				</g>
			</g>
		</g>
	</g>
</g>
</svg>
