<?xml version="1.0" encoding="utf-8"?>
<!-- Generator: Adobe Illustrator 17.0.0, SVG Export Plug-In . SVG Version: 6.00 Build 0)  -->
<!DOCTYPE svg PUBLIC "-//W3C//DTD SVG 1.1//EN" "http://www.w3.org/Graphics/SVG/1.1/DTD/svg11.dtd">
<svg version="1.1" xmlns="http://www.w3.org/2000/svg" xmlns:xlink="http://www.w3.org/1999/xlink" x="0px" y="0px" width="1280px"
	 height="720px" viewBox="0 0 1280 720" enable-background="new 0 0 1280 720" xml:space="preserve">
<g id="Linkedin">
	<g>
		<path fill="#269A8E" d="M640.999,0C839.832,0,1001,161.19,1001,360.001S839.832,720,640.999,720S281,558.81,281,360.001
			S442.168,0,640.999,0z"/>
		<path fill="#030104" d="M483.86,494.64h67.411V269.954H483.86V494.64z M746.481,262.171c-32.715,0-61.988,11.947-82.754,38.318
			v-31.275h-67.658v225.427h67.658V372.737c0-25.763,23.603-50.896,53.167-50.896s36.855,25.133,36.855,50.266V494.62h67.411V367.09
			C821.158,278.505,779.218,262.171,746.481,262.171z M517.25,247.5c18.63,0,33.751-15.121,33.751-33.751
			s-15.121-33.749-33.751-33.749s-33.751,15.121-33.751,33.751S498.62,247.5,517.25,247.5z"/>
	</g>
</g>
<g id="Camada_2">
</g>
<g id="Camada_3">
</g>
</svg>
