<svg id="Camada_1" data-name="Camada 1" xmlns="http://www.w3.org/2000/svg" viewBox="0 0 319.75 233.24"><defs><style>.cls-1{opacity:0.56;}.cls-2,.cls-3{fill:#30726c;}.cls-2{opacity:0.7;}.cls-4{fill:#fff;}</style></defs><title>logocarlos</title><g class="cls-1"><rect class="cls-2" x="34.41" y="157.59" width="164.92" height="164.92" transform="translate(-135.76 29.51) rotate(-45)"/><rect class="cls-2" x="120.92" y="157.59" width="164.92" height="164.92" transform="translate(-110.42 90.69) rotate(-45)"/><rect class="cls-3" x="75.97" y="157.59" width="164.92" height="164.92" transform="translate(-123.59 58.9) rotate(-45)"/></g><path class="cls-4" d="M153.12,257.26a3.1,3.1,0,0,1,1.1.2,3,3,0,0,1,1.05.71l6.12,6.44a25.43,25.43,0,0,1-10.07,7.93A35.26,35.26,0,0,1,137,275.21a34.13,34.13,0,0,1-13.59-2.58,29.41,29.41,0,0,1-10.19-7.13,31.35,31.35,0,0,1-6.42-10.78,39.8,39.8,0,0,1-2.24-13.54A37.47,37.47,0,0,1,107,227.5a31.77,31.77,0,0,1,6.81-10.76,30.66,30.66,0,0,1,10.51-7,35.19,35.19,0,0,1,13.48-2.51,36.09,36.09,0,0,1,7.06.66,34.63,34.63,0,0,1,6.19,1.83,28.26,28.26,0,0,1,5.3,2.81,27.75,27.75,0,0,1,4.29,3.56l-5.21,7a6.62,6.62,0,0,1-1.19,1.17,3.09,3.09,0,0,1-1.92.52,3.42,3.42,0,0,1-1.55-.37,17,17,0,0,1-1.55-.89l-1.8-1.14a13.83,13.83,0,0,0-2.33-1.14,19.14,19.14,0,0,0-3.15-.89,21.44,21.44,0,0,0-4.23-.37,17,17,0,0,0-7,1.42,15.25,15.25,0,0,0-5.48,4.13,19.1,19.1,0,0,0-3.56,6.67,29.73,29.73,0,0,0-1.26,9,27.39,27.39,0,0,0,1.39,9.09,20,20,0,0,0,3.79,6.69,16.07,16.07,0,0,0,5.6,4.13,16.74,16.74,0,0,0,6.85,1.42,32.51,32.51,0,0,0,3.84-.21,17.8,17.8,0,0,0,3.24-.68,13.2,13.2,0,0,0,2.83-1.28,17.88,17.88,0,0,0,2.7-2,5.44,5.44,0,0,1,1.19-.75A3.11,3.11,0,0,1,153.12,257.26Z" transform="translate(-0.25 -123.43)"/><path class="cls-4" d="M188.37,219.8v15.53H209.3v11.42H188.37v15.85h27.32v11.88H172.84V207.93h42.85V219.8Z" transform="translate(-0.25 -123.43)"/></svg>