<?xml version="1.0" encoding="utf-8"?>
<!-- Generator: Adobe Illustrator 17.0.0, SVG Export Plug-In . SVG Version: 6.00 Build 0)  -->
<!DOCTYPE svg PUBLIC "-//W3C//DTD SVG 1.1//EN" "http://www.w3.org/Graphics/SVG/1.1/DTD/svg11.dtd">
<svg version="1.1" id="Camada_1" xmlns="http://www.w3.org/2000/svg" xmlns:xlink="http://www.w3.org/1999/xlink" x="0px" y="0px"
	 width="200px" height="200px" viewBox="0 0 200 200" enable-background="new 0 0 200 200" xml:space="preserve">
<rect y="0" fill="#125379" width="200" height="200"/>
<g>
	<polygon fill="#976A23" points="99.623,133.55 102.703,149.748 105.785,133.55 	"/>
	<polygon fill="#976A23" points="114.063,116.477 126.209,99.894 113.181,83.693 88.007,84.076 75.861,100.658 88.889,116.859 	"/>
	<polygon fill="#1F91A5" points="114.063,116.477 126.209,99.894 113.181,83.693 88.007,84.076 75.861,100.658 88.889,116.859 	"/>
	<polygon fill="#125379" points="113.027,124.393 125.173,107.811 112.146,91.61 86.971,91.992 74.825,108.575 87.853,124.776 	"/>
	<polygon fill="#1F91A5" points="113.029,132.869 125.173,116.284 112.146,100.085 86.971,100.468 74.826,117.05 87.853,133.251 	
		"/>
	<polygon fill="#125379" points="113.981,138.016 125.258,122.619 113.162,107.579 89.791,107.936 78.515,123.331 90.61,138.37 	"/>
	<polygon fill="#1F91A5" points="110.114,141.778 119.563,129.229 109.448,116.975 89.884,117.273 80.436,129.822 90.551,142.075 	
		"/>
	<polygon fill="#125379" points="109.085,148.071 117.556,136.507 108.471,125.209 90.916,125.475 82.444,137.04 91.529,148.338 	
		"/>
	<polygon fill="#1F91A5" points="95.016,144.96 100,161.158 104.982,144.96 	"/>
	<polygon fill="#1F91A5" points="87.991,84.484 75.357,62.602 87.991,40.719 113.259,40.719 125.893,62.602 113.259,84.484 	"/>
	<g>
		<polygon fill="#1F91A5" points="149.842,116.7 158.578,105.234 153.014,91.935 138.716,90.104 129.982,101.571 135.545,114.868 		
			"/>
		<polygon fill="#1F91A5" points="149.842,116.7 158.578,105.234 153.014,91.935 138.716,90.104 129.982,101.571 135.545,114.868 		
			"/>
		<polygon fill="#1F91A5" points="148.257,129.081 156.992,117.616 151.428,104.318 137.13,102.487 128.396,113.953 133.96,127.25 
					"/>
	</g>
	<g>
		<polygon fill="#1F91A5" points="52.415,116.722 43.68,105.255 49.242,91.958 63.54,90.126 72.275,101.593 66.712,114.892 		"/>
		<polygon fill="#1F91A5" points="52.415,116.722 43.68,105.255 49.242,91.958 63.54,90.126 72.275,101.593 66.712,114.892 		"/>
		<polygon fill="#1F91A5" points="54,129.104 45.266,117.637 50.828,104.34 65.126,102.51 73.86,113.976 68.298,127.273 		"/>
	</g>
	<polygon fill="none" stroke="#1F91A5" stroke-width="14" stroke-miterlimit="10" points="145.3,179.07 54.005,178.67 8.704,99.599 
		54.698,20.93 145.994,21.331 191.296,100.401 	"/>
</g>
</svg>
