<?xml version="1.0" encoding="utf-8"?>
<!-- Generator: Adobe Illustrator 17.0.0, SVG Export Plug-In . SVG Version: 6.00 Build 0)  -->
<!DOCTYPE svg PUBLIC "-//W3C//DTD SVG 1.1//EN" "http://www.w3.org/Graphics/SVG/1.1/DTD/svg11.dtd">
<svg version="1.1" xmlns="http://www.w3.org/2000/svg" xmlns:xlink="http://www.w3.org/1999/xlink" x="0px" y="0px" width="1280px"
	 height="720px" viewBox="0 0 1280 720" enable-background="new 0 0 1280 720" xml:space="preserve">
<g id="Linkedin" display="none">
	<g display="inline">
		<path fill="#269A8E" d="M640.999,0C839.832,0,1001,161.19,1001,360.001S839.832,720,640.999,720S281,558.81,281,360.001
			S442.168,0,640.999,0z"/>
		<path fill="#030104" d="M483.86,494.64h67.411V269.954H483.86V494.64z M746.481,262.171c-32.715,0-61.988,11.947-82.754,38.318
			v-31.275h-67.658v225.427h67.658V372.737c0-25.763,23.603-50.896,53.167-50.896s36.855,25.133,36.855,50.266V494.62h67.411V367.09
			C821.158,278.505,779.218,262.171,746.481,262.171z M517.25,247.5c18.63,0,33.751-15.121,33.751-33.751
			s-15.121-33.749-33.751-33.749s-33.751,15.121-33.751,33.751S498.62,247.5,517.25,247.5z"/>
	</g>
</g>
<g id="Facebook" display="none">
	<g display="inline">
		<path fill="#2D9185" d="M640.999,0C839.832,0,1001,161.19,1001,360.001C1001,558.835,839.832,720,640.999,720
			S281,558.832,281,360.001C281,161.19,442.168,0,640.999,0z"/>
		<path fill="#030104" d="M684.831,247.836h46.395v-68.535h-54.539v0.247c-66.083,2.341-79.627,39.487-80.821,78.503h-0.136v34.223
			h-44.999v67.117h44.999V539.3h67.816V359.391h55.552l10.731-67.117h-66.261v-20.677
			C663.569,258.412,672.343,247.836,684.831,247.836z"/>
	</g>
</g>
<g id="Twitter">
	<g>
		<path fill="#2D9185" d="M640.999,0C839.832,0,1001,161.19,1001,360.001C1001,558.835,839.832,720,640.999,720
			S281,558.832,281,360.001C281,161.19,442.168,0,640.999,0z"/>
		<path fill="#030104" d="M866.068,242.528c-15.726,6.794-32.649,11.362-50.399,13.433c18.136-10.553,32.041-27.226,38.588-47.137
			c-16.964,9.787-35.731,16.876-55.733,20.677c-15.998-16.537-38.79-26.865-64.035-26.865c-48.419,0-87.704,38.094-87.704,85.117
			c0,6.683,0.766,13.186,2.271,19.419c-72.9-3.554-137.565-37.463-180.809-88.965c-7.56,12.578-11.881,27.179-11.881,42.794
			c0,29.52,15.479,55.619,39.015,70.853c-14.399-0.45-27.901-4.253-39.757-10.665v1.08c0,41.264,30.239,75.668,70.379,83.498
			c-7.358,1.935-15.098,2.993-23.109,2.993c-5.647,0-11.137-0.517-16.492-1.53c11.159,33.84,43.561,58.454,81.968,59.131
			c-30.036,22.859-67.86,36.45-108.967,36.45c-7.088,0-14.063-0.405-20.949-1.191c38.857,24.164,84.939,38.271,134.505,38.271
			c161.37,0,249.616-129.779,249.616-242.28l-0.247-11.025C839.427,274.613,854.301,259.628,866.068,242.528z"/>
	</g>
</g>
</svg>
